Coordinates
version=1
nRows=9
nColumns=60
inDegrees=yes

Units are S.I. units (second, meters, Newtons, ...)
If the header above contains a line with 'inDegrees', this indicates whether rotational values are in degrees (yes) or radians (no).

endheader
time	pelvis_tilt	pelvis_list	pelvis_rotation	pelvis_tx	pelvis_ty	pelvis_tz	hip_flexion_r	hip_adduction_r	hip_rotation_r	knee_angle_r_beta	knee_angle_r	ankle_angle_r	subtalar_angle_r	mtp_angle_r	hip_flexion_l	hip_adduction_l	hip_rotation_l	knee_angle_l_beta	knee_angle_l	ankle_angle_l	subtalar_angle_l	mtp_angle_l	L5_S1_Flex_Ext	L5_S1_Lat_Bending	L5_S1_axial_rotation	L4_L5_Flex_Ext	L4_L5_Lat_Bending	L4_L5_axial_rotation	L3_L4_Flex_Ext	L3_L4_Lat_Bending	L3_L4_axial_rotation	L2_L3_Flex_Ext	L2_L3_Lat_Bending	L2_L3_axial_rotation	L1_L2_Flex_Ext	L1_L2_Lat_Bending	L1_L2_axial_rotation	L1_T12_Flex_Ext	L1_T12_Lat_Bending	L1_T12_axial_rotation	Abs_r3	Abs_r2	Abs_r1	Abs_t1	Abs_t2	arm_flex_r	arm_add_r	arm_rot_r	elbow_flex_r	pro_sup_r	wrist_flex_r	wrist_dev_r	arm_flex_l	arm_add_l	arm_rot_l	elbow_flex_l	pro_sup_l	wrist_flex_l	wrist_dev_l
      7.01000000	      0.74089827	     -1.03601494	     93.92251390	      0.40416974	      0.93152392	      0.32089454	     14.30314448	     -3.97082096	     -0.27575245	      0.29104526	    -16.67566484	      4.98730564	      0.00000000	      0.00000000	     13.73834729	     -5.65148251	      2.39388430	      0.22011930	    -12.61190691	      4.14312632	      0.00000000	      0.00000000	     -6.79322099	      0.24008669	     -0.40445506	    -12.61569070	      0.31931530	     -0.42973350	    -11.16058277	      0.58374677	     -0.42973350	     -7.76397227	      0.58374677	     -0.35389817	     -6.30818501	      0.48958478	     -0.32861973	     -3.88164647	      0.37189428	     -0.30334129	    -48.52329822	      2.71590864	     -2.24945769	      0.00000000	      0.00000000	     90.09172594	    -17.42832714	     27.30998591	     34.80703674	     52.77538462	     23.95491788	     22.44309555	     95.71513758	    -17.60119640	     48.44697029	     27.26659186	     36.78664340	     30.49138268	     11.83033710
      7.02000000	      0.78220234	     -1.23207292	     93.93798756	      0.40443690	      0.93106910	      0.32332018	     14.63294169	     -3.92491143	     -0.27733412	      0.28949161	    -16.58664729	      4.93278426	      0.00000000	      0.00000000	     14.05025387	     -5.68474332	      2.37071399	      0.21762965	    -12.46926050	      4.09584476	      0.00000000	      0.00000000	     -6.81745317	      0.23668374	     -0.42093877	    -12.66069228	      0.31478937	     -0.44724744	    -11.20039381	      0.57547284	     -0.44724744	     -7.79166723	      0.57547284	     -0.36832142	     -6.33068701	      0.48264548	     -0.34201275	     -3.89549274	      0.36662311	     -0.31570407	    -48.69638623	      2.67741376	     -2.34113513	      0.00000000	      0.00000000	     90.58963080	    -17.28824326	     27.24015026	     34.85200377	     52.76931748	     23.93489146	     22.44160107	     96.21846718	    -17.58962553	     48.35298637	     27.23380316	     36.76160173	     30.48467081	     11.82250498
      7.03000000	      0.84203532	     -1.53225964	     93.94722579	      0.40466794	      0.93047471	      0.32592898	     15.15183155	     -3.86820444	     -0.07948299	      0.28962309	    -16.59418070	      4.48625710	      0.00000000	      0.00000000	     14.44800703	     -5.72370840	      2.54671467	      0.21386093	    -12.25332895	      3.63405887	      0.00000000	      0.00000000	     -6.81156288	      0.23608355	     -0.46437133	    -12.64975343	      0.31399112	     -0.49339454	    -11.19071666	      0.57401355	     -0.49339454	     -7.78493522	      0.57401355	     -0.40632491	     -6.32521729	      0.48142158	     -0.37730170	     -3.89212703	      0.36569342	     -0.34827850	    -48.65431251	      2.67062434	     -2.58269401	      0.00000000	      0.00000000	     91.20790798	    -16.74052080	     27.16338710	     34.33328245	     52.76691239	     23.81658894	     22.54657956	     96.70128457	    -17.67823722	     48.23575261	     26.83137452	     36.61689646	     30.47517206	     11.90338156
      7.04000000	      0.87920181	     -1.79757721	     93.95010692	      0.40487847	      0.92991134	      0.32834438	     15.56831396	     -3.84815814	     -0.08913216	      0.28815856	    -16.51026952	      4.28904005	      0.00000000	      0.00000000	     14.80725002	     -5.74487985	      2.60747245	      0.21038203	    -12.05400225	      3.37242273	      0.00000000	      0.00000000	     -6.79845335	      0.23024829	     -0.49714861	    -12.62540771	      0.30623022	     -0.52822039	    -11.16917900	      0.55982568	     -0.52822039	     -7.76995233	      0.55982568	     -0.43500503	     -6.31304378	      0.46952231	     -0.40393324	     -3.88463624	      0.35665460	     -0.37286145	    -48.56067241	      2.60461467	     -2.76499140	      0.00000000	      0.00000000	     91.87858742	    -16.23122463	     27.11945162	     33.44450100	     52.83500023	     23.61506791	     22.75347302	     97.05069787	    -17.80033251	     48.16961556	     26.70432242	     36.36832491	     30.52361706	     12.09502937
      7.05000000	      0.91938532	     -1.89917412	     93.94761195	      0.40508471	      0.92961727	      0.33058773	     15.79295737	     -3.80760910	     -0.12374614	      0.28669546	    -16.42644005	      4.27962662	      0.00000000	      0.00000000	     15.01228581	     -5.78484122	      2.57656050	      0.20858967	    -11.95130747	      3.36927136	      0.00000000	      0.00000000	     -6.81055861	      0.22523004	     -0.50499304	    -12.64788839	      0.29955595	     -0.53655510	    -11.18906673	      0.54762431	     -0.53655510	     -7.78378743	      0.54762431	     -0.44186891	     -6.32428472	      0.45928909	     -0.41030684	     -3.89155319	      0.34888132	     -0.37874478	    -48.64713907	      2.54784721	     -2.80861978	      0.00000000	      0.00000000	     92.26944900	    -16.17364093	     27.08653899	     33.47823399	     52.84625004	     23.59818712	     22.75973457	     97.44440154	    -17.84652873	     48.10530508	     26.73855620	     36.34617761	     30.52064514	     12.09868509
      7.06000000	      0.99422379	     -2.10683539	     93.91541257	      0.40531460	      0.92921744	      0.33290144	     16.16309635	     -3.72783981	      0.04271073	      0.28564782	    -16.36641451	      3.75994400	      0.00000000	      0.00000000	     15.26964118	     -5.86252624	      2.67826468	      0.20401603	    -11.68925773	      2.88765789	      0.00000000	      0.00000000	     -6.78931696	      0.22388740	     -0.54479741	    -12.60844052	      0.29777024	     -0.57884725	    -11.15416883	      0.54435982	     -0.57884725	     -7.75951035	      0.54435982	     -0.47669773	     -6.30455973	      0.45655118	     -0.44264790	     -3.87941571	      0.34680158	     -0.40859806	    -48.49541209	      2.53265900	     -3.02999975	      0.00000000	      0.00000000	     92.89738085	    -15.63376033	     27.44115725	     32.70432404	     53.03668326	     23.39715804	     23.02170730	     97.68231092	    -18.23321709	     48.23921470	     26.79413837	     36.26221512	     30.46051724	     12.35019269
      7.07000000	      1.03537108	     -2.18884293	     93.88820238	      0.40547404	      0.92898741	      0.33499583	     16.32403566	     -3.68729701	      0.01471107	      0.28274474	    -16.20008038	      3.60137403	      0.00000000	      0.00000000	     15.42175796	     -5.90424910	      2.65594881	      0.20141095	    -11.53999710	      2.70824988	      0.00000000	      0.00000000	     -6.78133587	      0.22050542	     -0.57739611	    -12.59361884	      0.29327221	     -0.61348337	    -11.14105670	      0.53613687	     -0.61348337	     -7.75038876	      0.53613687	     -0.50522160	     -6.29714849	      0.44965465	     -0.46913434	     -3.87485531	      0.34156289	     -0.43304708	    -48.43840397	      2.49440140	     -3.21130396	      0.00000000	      0.00000000	     93.53807784	    -15.20024043	     28.05423245	     31.86954766	     53.37888695	     23.03617087	     23.39721417	     97.86164551	    -18.71677710	     48.57100583	     27.29548869	     36.21148165	     30.21561023	     12.82335673
      7.08000000	      1.06625921	     -2.18776698	     93.85796860	      0.40563082	      0.92889133	      0.33692157	     16.42167363	     -3.65533425	     -0.02019259	      0.28174082	    -16.14255972	      3.58920754	      0.00000000	      0.00000000	     15.51350376	     -5.94885837	      2.64403720	      0.20045908	    -11.48545934	      2.70160215	      0.00000000	      0.00000000	     -6.77954210	      0.21439842	     -0.57827176	    -12.59028763	      0.28514990	     -0.61441375	    -11.13810972	      0.52128832	     -0.61441375	     -7.74833867	      0.52128832	     -0.50598779	     -6.29548279	      0.43720126	     -0.46984581	     -3.87383036	      0.33210315	     -0.43370382	    -48.42559126	      2.42531779	     -3.21617405	      0.00000000	      0.00000000	     93.73132644	    -15.15754639	     28.06574763	     31.90544464	     53.39325224	     23.01842433	     23.40400437	     98.05069929	    -18.72612774	     48.55699408	     27.33852109	     36.21062066	     30.19232064	     12.83775706
      7.09000000	      1.10716547	     -2.21445342	     93.79723851	      0.40580622	      0.92883337	      0.33882958	     16.54256929	     -3.60824532	     -0.05290314	      0.27980093	    -16.03141241	      3.50554934	      0.00000000	      0.00000000	     15.60652870	     -5.99965580	      2.62312010	      0.19879434	    -11.39007656	      2.63666888	      0.00000000	      0.00000000	     -6.77373623	      0.20748318	     -0.57677916	    -12.57950556	      0.27595262	     -0.61282786	    -11.12857126	      0.50447459	     -0.61282786	     -7.74170314	      0.50447459	     -0.50468177	     -6.29009147	      0.42309969	     -0.46863307	     -3.87051288	      0.32139144	     -0.43258437	    -48.38412055	      2.34709119	     -3.20787267	      0.00000000	      0.00000000	     93.88724826	    -15.10995576	     28.15234677	     31.86803582	     53.43316126	     22.97630136	     23.43434289	     98.23554945	    -18.80201874	     48.58597772	     27.38768814	     36.22904437	     30.13407044	     12.88020239
